<?xml version="1.0" encoding="iso-8859-1"?>
<!-- Generator: Adobe Illustrator 19.0.0, SVG Export Plug-In . SVG Version: 6.00 Build 0)  -->
<svg version="1.1" id="Layer_1" xmlns="http://www.w3.org/2000/svg" xmlns:xlink="http://www.w3.org/1999/xlink" x="0px" y="0px"
	 viewBox="0 0 512 512" style="enable-background:new 0 0 512 512;" xml:space="preserve">
<g>
	<g>
		<polygon points="450.596,125.669 483.57,28.451 386.347,61.421 304.074,0.022 305.386,102.673 221.569,161.94 319.6,192.422 
			350.077,290.446 409.349,206.635 512,207.945 		"/>
	</g>
</g>
<g>
	<g>
		<path d="M290.462,221.56l-39.383-12.247L10.684,449.708c-14.245,14.245-14.245,37.342,0,51.587
			c14.244,14.244,37.339,14.244,51.585,0l240.416-240.416L290.462,221.56z"/>
	</g>
</g>
<g>
	<g>
		
			<rect x="287.882" y="360.828" transform="matrix(0.7071 -0.7071 0.7071 0.7071 -178.3797 327.4832)" width="36.471" height="36.473"/>
	</g>
</g>
<g>
	<g>
		
			<rect x="456.628" y="297.996" transform="matrix(0.7071 -0.7071 0.7071 0.7071 -84.5264 428.4027)" width="36.472" height="36.475"/>
	</g>
</g>
<g>
	<g>
		
			<rect x="105.494" y="190.604" transform="matrix(0.7071 -0.7071 0.7071 0.7071 -111.4333 148.6604)" width="36.476" height="36.476"/>
	</g>
</g>
<g>
	<g>
		<rect x="175.484" y="29.589" transform="matrix(0.7071 -0.7071 0.7071 0.7071 22.921 150.99)" width="36.476" height="36.476"/>
	</g>
</g>
<g>
</g>
<g>
</g>
<g>
</g>
<g>
</g>
<g>
</g>
<g>
</g>
<g>
</g>
<g>
</g>
<g>
</g>
<g>
</g>
<g>
</g>
<g>
</g>
<g>
</g>
<g>
</g>
<g>
</g>
</svg>
